# AST/ASF file generated using VICON BodyLanguage
# -----------------------------------------------
:version 1.10
:name VICON
:units
  mass 1.0
  length 0.45
  angle deg
:documentation
   .ast/.asf automatically generated from VICON data using
   VICON BodyBuilder and BodyLanguage model FoxedUp or BRILLIANT.MOD
:root
   order TX TY TZ RX RY RZ
   axis XYZ
   position 0 0 0  
   orientation 0 -0 0 
:bonedata
  begin
     id 1 
     name lhipjoint
     direction 0.432694 -0.693742 0.575759 
     length 2.19277 
     axis 0 -0 0  XYZ
  end
  begin
     id 2 
     name lfemur
     direction 0.34202 -0.939693 0  
     length 6.69022  
     axis 0 -0 20  XYZ
    dof rx ry rz
    limits (-160.0 20.0)
           (-70.0 70.0)
           (-60.0 70.0)
  end
  begin
     id 3 
     name ltibia
     direction 0.34202 -0.939693 0   
     length 6.50337   
     axis 0 -0 20   XYZ
    dof rx
    limits (-10.0 170.0)
  end
  begin
     id 4 
     name lfoot
     direction 0.158999 -0.435969 0.885805   
     length 2.70564   
     axis -90 -1.13533e-015 20   XYZ
    dof rx rz
    limits (-45.0 90.0)
           (-70.0 20.0)
  end
  begin
     id 5 
     name ltoes
     direction -0.00592919 0.00964381 0.999936   
     length 1.29929   
     axis -90 -1.13533e-015 20   XYZ
    dof rx
    limits (-90.0 20.0)
  end
  begin
     id 6 
     name rhipjoint
     direction -0.414359 -0.700339 0.581234   
     length 2.17212  
     axis 0 -0 0  XYZ 
  end
  begin
     id 7 
     name rfemur
     direction -0.34202 -0.939693 0   
     length 7.17659   
     axis 0 -0 -20   XYZ
    dof rx ry rz
    limits (-160.0 20.0)
           (-70.0 70.0)
           (-70.0 60.0)
  end
  begin
     id 8 
     name rtibia
     direction -0.34202 -0.939693 0   
     length 6.36669   
     axis 0 -0 -20   XYZ
    dof rx
    limits (-10.0 170.0)
 end
 begin
     id 9 
     name rfoot
     direction -0.137064 -0.37658 0.916188   
     length 2.22351  
     axis -90 1.13533e-015 -20   XYZ
    dof rx rz
    limits (-45.0 90.0)
           (-20.0 70.0)
  end
  begin
     id 10 
     name rtoes
     direction -0.000784077 -0.00289101 0.999996   
     length 1.09522   
     axis -90 1.13533e-015 -20   XYZ
    dof rx
    limits (-90.0 20.0)
  end
  begin
     id 11 
     name lowerback
     direction -0.0176242 0.984912 -0.172157   
     length 1.65301   
     axis 0 -0 0   XYZ
    dof rx ry rz
    limits (-20.0 45.0)
           (-30.0 30.0)
           (-30.0 30.0)
  end
  begin
     id 12 
     name upperback
     direction -0.00218128 0.998776 -0.0494072   
     length 1.67776   
     axis 0 -0 0   XYZ
    dof rx ry rz
    limits (-20.0 45.0)
           (-30.0 30.0)
           (-30.0 30.0)
  end
  begin
     id 13 
     name thorax
     direction 0.00544186 0.999658 0.0255711   
     length 1.72293   
     axis 0 -0 0   XYZ
    dof rx ry rz
    limits (-20.0 45.0)
           (-30.0 30.0)
           (-30.0 30.0)
  end
  begin
     id 14 
     name lowerneck
     direction -0.105325 0.983841 0.144785   
     length 2.14226   
     axis 0 -0 0   XYZ
    dof rx ry rz
    limits (-20.0 45.0)
           (-30.0 30.0)
           (-30.0 30.0)
  end
  begin
     id 15 
     name upperneck
     direction 0.0547957 0.988053 -0.144041   
     length 2.17508   
     axis 0 -0 0   XYZ
    dof rx ry rz
    limits (-20.0 45.0)
           (-30.0 30.0)
           (-30.0 30.0)
  end
  begin
     id 16
     name head
     direction 0.0247488 0.997534 -0.0656813  
     length 2.20048  
     axis 0 -0 0   XYZ
    dof rx ry rz
    limits (-20.0 45.0)
           (-30.0 30.0)
           (-30.0 30.0)
  end
  begin
     id 17 
     name lclavicle
     direction 0.820559 0.567247 -0.0701026  
     length 4.09615  
     axis 0 -0 0   XYZ
    dof ry rz
    limits (-20.0 10.0)
           (0.0 20.0)
  end
  begin
     id 18 
     name lhumerus
     direction 0.999977 -0.0067566 -9.96392e-005   
     length 4.59333   
     axis -180 -30 -90   XYZ
    dof rx ry rz
    limits (-60.0 90.0)
           (-90.0 90.0)
           (-90.0 90.0)
  end
  begin
     id 19
     name lradius
     direction 1 -4.48982e-011 -2.53425e-027   
     length 2.81151   
     axis -180 -30 -90   XYZ
    dof rx
    limits (-10.0 170.0)
  end
  begin
     id 20
     name lwrist
     direction 1 -4.48939e-011 -7.39254e-028   
     length 1.40576   
     axis 2.56395e-016 90 90   XYZ
    dof ry
    limits (-180.0 0.0)
 end
  begin
     id 21 
     name lhand
     direction 1 -4.48939e-011 -1.47851e-027   
     length 0.895651   
     axis 9.43423e-016 90 90   XYZ
    dof rx rz
    limits (-90.0 90.0)
           (-45.0 45.0)
  end
  begin
     id 22 
     name lfingers
     direction 1 -4.48978e-011 -2.95702e-027   
     length 0.722097   
     axis 1.88685e-015 90 90   XYZ
    dof rx
    limits (0.0 90.0)
  end
  begin
     id 23
     name lthumb
     direction 0.707107 -6.34931e-011 0.707107   
     length 1.03679   
     axis -90 45 -9.86935e-015   XYZ
    dof rx rz
    limits (-45.0 45.0)
           (-45.0 45.0)
  end
  begin
     id 24 
     name rclavicle
     direction -0.831414 0.553102 -0.0531864   
     length 4.24872  
     axis 0 -0 0   XYZ 
    dof ry rz
    limits (-10.0 20.0)
           (-20.0 0.0)
  end
  begin
     id 25 
     name rhumerus
     direction -0.999916 -0.000939607 0.0129331  
     length 4.74834   
     axis -180 30 90   XYZ
    dof rx ry rz
    limits (-90.0 60.0)
           (-90.0 90.0)
           (-90.0 90.0)
  end
  begin
     id 26 
     name rradius
     direction -1 -4.48956e-011 -1.31752e-027   
     length 2.79907   
     axis -180 30 90   XYZ
    dof rx
    limits (-10.0 170.0)
  end
  begin
     id 27 
     name rwrist
     direction -1 -4.4897e-011 -7.39254e-028   
     length 1.39954   
     axis 2.56395e-016 -90 -90   XYZ
    dof ry
    limits (-180.0 0.0)
  end
  begin
     id 28
     name rhand
     direction -0.999997 -0.00250697 0.000800838   
     length 0.953304   
     axis 9.43423e-016 -90 -90   XYZ
    dof rx rz
    limits (-90.0 90.0)
           (-45.0 45.0)
  end
  begin
     id 29
     name rfingers
     direction -1 -4.48954e-011 -2.95702e-027   
     length 0.763342   
     axis 1.88685e-015 -90 -90   XYZ
    dof rx
    limits (0.0 90.0)
  end
  begin
     id 30
     name rthumb
     direction -0.709701 -0.00217037 0.7045   
     length 1.10115   
     axis -90 -45 9.86935e-015   XYZ
    dof rx rz
    limits (-45.0 45.0)
           (-45.0 45.0)
  end
:hierarchy
  begin
    root lhipjoint rhipjoint lowerback
    lhipjoint lfemur
    lfemur ltibia
    ltibia lfoot
    lfoot ltoes
    rhipjoint rfemur
    rfemur rtibia
    rtibia rfoot
    rfoot rtoes
    lowerback upperback
    upperback thorax
    thorax lowerneck lclavicle rclavicle
    lowerneck upperneck
    upperneck head
    lclavicle lhumerus
    lhumerus lradius
    lradius lwrist
    lwrist lhand lthumb
    lhand lfingers
    rclavicle rhumerus
    rhumerus rradius
    rradius rwrist
    rwrist rhand rthumb
    rhand rfingers
  end

#!OML:ASF G:\ViconDB\ViconDB\414\test\team2\shane.ASF
:FULLY-SPECIFIED
:DEGREES
1
root 0.309986 16.5428 -27.1346 -4.85347 -20.174 -4.88938
lowerback 11.8611 3.54309 4.69071
upperback 3.43096 5.2428 0.71768
thorax -2.67725 2.59 -2.59418
lowerneck -17.12 1.22017 -1.13672
upperneck 18.78 0.898396 4.9162
head 8.66044 0.867683 1.96529
rclavicle 1.04213e-013 -1.03368e-014
rhumerus -19.7792 19.6938 -106.574
rradius 64.9787
rwrist 23.2395
rhand -37.1545 -17.4925
rfingers 7.12502
rthumb -10.2237 -47.2241
lclavicle 1.04213e-013 -1.03368e-014
lhumerus -52.0507 -15.3564 95.612
lradius 17.4503
lwrist -12.526
lhand -39.2124 9.8115
lfingers 7.12502
lthumb -12.2085 39.4352
rfemur 27.5704 6.52915 23.2745
rtibia -1.59028e-014
rfoot -19.9734 -2.60974
rtoes -10.996
lfemur -22.0998 10.3527 -1.30664
ltibia 34.5814
lfoot -31.8405 -5.96835
ltoes -12.7558
2
root 0.314327 16.5255 -27.006 -5.12001 -20.0988 -4.53084
lowerback 12.0991 3.72533 4.39695
upperback 3.37568 5.45513 0.478921
thorax -2.85307 2.69083 -2.72709
lowerneck -17.2577 1.06202 -1.03821
upperneck 18.9306 0.586382 5.19258
head 8.7481 0.760956 2.00951
rclavicle 3.85642e-014 -6.75868e-015
rhumerus -18.0342 20.2266 -106.658
rradius 67.8867
rwrist 23.1843
rhand -37.4465 -17.0345
rfingers 7.12502
rthumb -10.5054 -46.752
lclavicle 1.04213e-013 -1.03368e-014
lhumerus -52.0507 -15.3564 95.612
lradius 17.4503
lwrist -12.526
lhand -39.2124 9.8115
lfingers 7.12502
lthumb -12.2085 39.4352
rfemur 28.1961 6.53379 22.7875
rtibia -5.08889e-014
rfoot -20.05 -2.84422
rtoes -11.8019
lfemur -22.5712 10.5752 -1.81573
ltibia 34.3418
lfoot -32.0363 -5.46234
ltoes -12.9481
3
root 0.328808 16.5074 -26.8794 -5.17166 -19.8027 -4.65172
lowerback 12.2583 3.7946 4.63672
upperback 3.34573 5.58019 0.34747
thorax -2.92458 2.75034 -3.02582
lowerneck -17.1273 0.8433 -0.916189
upperneck 18.6609 0.214834 5.41099
head 8.64734 0.614492 2.01182
rclavicle 2.15184e-014 -2.78299e-015
rhumerus -16.1617 20.6772 -106.385
rradius 70.6692
rwrist 23.6127
rhand -37.8421 -16.6799
rfingers 7.12502
rthumb -10.8869 -46.3777
lclavicle 1.04213e-013 -1.03368e-014
lhumerus -52.0507 -15.3564 95.612
lradius 17.4503
lwrist -12.526
lhand -39.2124 9.8115
lfingers 7.12502
lthumb -12.2085 39.4352
rfemur 28.7427 6.27233 22.7439
rtibia -3.81667e-014
rfoot -20.2582 -3.02671
rtoes -12.0337
lfemur -23.232 10.696 -1.87173
ltibia 34.3254
lfoot -32.033 -5.25587
ltoes -13.3828
4
root 0.3426 16.4877 -26.7457 -5.07699 -19.4607 -4.71266
lowerback 12.2452 3.87445 4.74733
upperback 3.27331 5.69795 0.237419
thorax -2.96102 2.80701 -3.21856
lowerneck -17.1452 0.607689 -0.922584
upperneck 18.5406 -0.156845 5.65487
head 8.62432 0.464257 2.04867
rclavicle 4.79816e-014 6.75868e-015
rhumerus -14.2536 20.9503 -106.113
rradius 73.3033
rwrist 24.261
rhand -38.0939 -16.3146
rfingers 7.12502
rthumb -11.1298 -45.9995
lclavicle 1.04213e-013 -1.03368e-014
lhumerus -52.0507 -15.3564 95.612
lradius 17.4503
lwrist -12.526
lhand -39.2124 9.8115
lfingers 7.12502
lthumb -12.2085 39.4352
rfemur 29.1171 6.00124 22.5866
rtibia -9.54166e-015
rfoot -20.3286 -3.11817
rtoes -12.4646
lfemur -23.9926 10.9619 -2.10503
ltibia 34.3544
lfoot -31.9052 -5.37811
ltoes -12.9653
5
root 0.353066 16.4656 -26.6123 -5.0617 -19.1515 -4.83497
lowerback 12.2469 3.97145 4.75851
upperback 3.26138 5.82893 0.242636
thorax -2.96256 2.87195 -3.23672
lowerneck -17.0688 0.417524 -1.03265
upperneck 18.3862 -0.450495 5.96984
head 8.5708 0.34879 2.13496
rclavicle -2.55935e-014 5.56597e-015
rhumerus -12.4791 21.3655 -105.556
rradius 76.0456
rwrist 24.551
rhand -38.4454 -16.0802
rfingers 7.12502
rthumb -11.4688 -45.7464
lclavicle 1.04213e-013 -1.03368e-014
lhumerus -52.0507 -15.3564 95.612
lradius 17.4503
lwrist -12.526
lhand -39.2124 9.8115
lfingers 7.12502
lthumb -12.2085 39.4352
rfemur 29.6122 5.73288 22.5346
rtibia 3.18055e-014
rfoot -20.3262 -3.34111
rtoes -13.7274
lfemur -24.5983 11.1066 -2.18768
ltibia 34.5106
lfoot -31.7531 -5.40911
ltoes -12.7731
6
root 0.370796 16.442 -26.4689 -4.94835 -18.6594 -5.05125
lowerback 12.2241 4.00073 4.99209
upperback 3.16506 5.8988 0.218196
thorax -3.01821 2.90303 -3.40277
lowerneck -17.0399 0.205535 -0.841368
upperneck 18.3712 -0.781272 5.91548
head 8.57396 0.200449 2.0439
rclavicle 3.74212e-014 6.36111e-015
rhumerus -10.7587 21.4531 -104.977
rradius 78.5986
rwrist 25.1694
rhand -38.7966 -16.031
rfingers 7.12502
rthumb -11.8075 -45.6781
lclavicle 1.04213e-013 -1.03368e-014
lhumerus -52.0507 -15.3564 95.612
lradius 17.4503
lwrist -12.526
lhand -39.2124 9.8115
lfingers 7.12502
lthumb -12.2085 39.4352
rfemur 30.0747 5.3073 22.4982
rtibia 1.59028e-014
rfoot -20.3746 -3.31506
rtoes -14.1307
lfemur -25.2598 11.0789 -2.25476
ltibia 34.765
lfoot -31.7224 -5.53418
ltoes -12.5881
7
root 0.390811 16.4159 -26.3268 -5.0412 -18.6009 -5.03602
lowerback 12.3513 4.18437 5.04955
upperback 3.18225 6.1502 0.0942685
thorax -3.02626 3.02797 -3.60482
lowerneck -17.1097 -0.034613 -1.00251
upperneck 18.2466 -1.16574 6.38601
head 8.56418 0.0572064 2.18235
rclavicle -5.79457e-014 -1.15295e-014
rhumerus -8.81384 21.3584 -104.412
rradius 80.8095
rwrist 26.1533
rhand -38.7131 -15.8718
rfingers 7.12502
rthumb -11.727 -45.5236
lclavicle 1.04213e-013 -1.03368e-014
lhumerus -52.0507 -15.3564 95.612
lradius 17.4503
lwrist -12.526
lhand -39.2124 9.8115
lfingers 7.12502
lthumb -12.2085 39.4352
rfemur 30.6468 5.34578 22.274
rtibia 2.8625e-014
rfoot -20.2846 -3.43036
rtoes -14.8074
lfemur -25.548 11.2883 -2.48667
ltibia 35.0802
lfoot -31.6249 -5.39728
ltoes -12.6066
8
root 0.412961 16.3924 -26.1796 -5.05616 -18.1486 -5.1381
lowerback 12.4548 4.23148 5.20322
upperback 3.10985 6.23724 0.00441284
thorax -3.12324 3.06639 -3.80725
lowerneck -17.0451 -0.296953 -0.978217
upperneck 18.164 -1.55867 6.52253
head 8.54312 -0.114002 2.17493
rclavicle -4.45775e-014 1.19271e-014
rhumerus -7.18114 21.4086 -103.778
rradius 83.0314
rwrist 26.8484
rhand -39.0278 -16.5064
rfingers 7.12502
rthumb -12.0305 -46.1406
lclavicle -4.45775e-014 1.19271e-014
lhumerus -60.0538 -14.2441 91.7018
lradius 15.3197
lwrist -15.4556
lhand -36.2241 8.78669
lfingers 7.12502
lthumb -9.326 38.5604
rfemur 31.2166 4.99544 22.1016
rtibia -3.18055e-014
rfoot -20.1529 -3.43283
rtoes -16.143
lfemur -25.9448 11.381 -2.73569
ltibia 35.4181
lfoot -31.4325 -5.53785
ltoes -12.4016
9
root 0.43776 16.3668 -26.0273 -5.06481 -17.8627 -5.1609
lowerback 12.4087 4.35179 5.21393
upperback 3.12789 6.39467 -0.00468843
thorax -3.06123 3.14735 -3.83685
lowerneck -16.8395 -0.546213 -1.02985
upperneck 17.7749 -1.86041 6.50529
head 8.38786 -0.272203 2.13427
rclavicle 4.33848e-014 -1.27222e-014
rhumerus -5.52359 21.6048 -102.887
rradius 85.0842
rwrist 26.8427
rhand -39.5412 -16.8398
rfingers 7.12502
rthumb -12.5254 -46.4444
lclavicle 4.33848e-014 -1.27222e-014
lhumerus -60.7198 -14.2032 91.337
lradius 15.0778
lwrist -15.2444
lhand -35.9762 8.65775
lfingers 7.12502
lthumb -9.08681 38.442
rfemur 31.756 4.82104 21.8685
rtibia -5.40694e-014
rfoot -19.9606 -3.60099
rtoes -17.587
lfemur -26.1808 11.4812 -3.03858
ltibia 35.7682
lfoot -31.3097 -5.43453
ltoes -12.4738
10
root 0.463028 16.338 -25.8731 -5.12397 -17.4186 -5.32602
lowerback 12.5613 4.38805 5.37515
upperback 3.0866 6.47272 -0.026152
thorax -3.15909 3.18117 -3.9746
lowerneck -16.9687 -0.77703 -0.913857
upperneck 17.8899 -2.21736 6.50583
head 8.46472 -0.427723 2.07379
rclavicle -8.40362e-014 1.74931e-014
rhumerus -4.04312 21.5968 -102.124
rradius 86.8921
rwrist 27.3383
rhand -39.978 -17.3664
rfingers 7.12502
rthumb -12.9466 -46.9448
lclavicle -8.40362e-014 1.74931e-014
lhumerus -61.2734 -13.8882 90.4846
lradius 14.8113
lwrist -15.867
lhand -35.6189 8.67583
lfingers 7.12502
lthumb -8.74201 38.4748
rfemur 32.4179 4.47508 21.764
rtibia 6.36111e-014
rfoot -19.6783 -3.5177
rtoes -18.3631
lfemur -26.2985 11.5237 -3.22299
ltibia 36.1474
lfoot -31.1559 -5.52525
ltoes -12.5465
11
root 0.49305 16.3166 -25.7081 -5.12814 -17.0971 -5.29853
lowerback 12.4178 4.45353 5.45217
upperback 3.11473 6.55582 -0.14346
thorax -3.01966 3.22888 -4.13305
lowerneck -17.0273 -0.979306 -0.939041
upperneck 17.7435 -2.50379 6.61178
head 8.44021 -0.555141 2.07713
rclavicle -6.11263e-015 -1.51076e-014
rhumerus -2.5487 21.62 -101.291
rradius 88.4925
rwrist 28.0965
rhand -40.121 -17.9718
rfingers 7.12502
rthumb -13.0844 -47.5413
lclavicle -6.11263e-015 -1.51076e-014
lhumerus -61.8488 -14.0073 90.1961
lradius 14.7562
lwrist -14.9268
lhand -35.7029 8.4881
lfingers 7.12502
lthumb -8.82313 38.2837
rfemur 32.9484 4.30438 21.4351
rtibia -2.54444e-014
rfoot -19.2857 -3.46386
rtoes -19.2988
lfemur -26.3518 11.5961 -3.6481
ltibia 36.5625
lfoot -30.8914 -5.50951
ltoes -12.3167
12
root 0.524801 16.2945 -25.5398 -5.12232 -16.8745 -5.4339
lowerback 12.435 4.57724 5.52879
upperback 3.0617 6.73397 -0.112707
thorax -3.0606 3.31449 -4.16996
lowerneck -16.919 -1.25082 -1.12152
upperneck 17.5877 -2.84824 6.74713
head 8.38763 -0.721141 2.10911
rclavicle -5.81445e-015 7.55382e-015
rhumerus -1.3798 21.5934 -100.333
rradius 90.0856
rwrist 28.1672
rhand -40.4568 -18.3306
rfingers 7.12502
rthumb -13.4081 -47.8792
lclavicle -5.81445e-015 7.55382e-015
lhumerus -62.1596 -13.3932 88.9531
lradius 14.668
lwrist -16.1061
lhand -35.292 8.38891
lfingers 7.12502
lthumb -8.42657 38.2008
rfemur 33.5086 4.2178 21.279
rtibia 5.725e-014
rfoot -18.6902 -3.30177
rtoes -20.2376
lfemur -26.2739 12.0002 -3.9459
ltibia 37.0127
lfoot -30.5818 -5.47115
ltoes -12.1867
13
root 0.560993 16.2727 -25.3667 -5.12577 -16.4579 -5.53313
lowerback 12.6224 4.60949 5.66718
upperback 2.88684 6.81284 -0.115773
thorax -3.32148 3.33922 -4.28908
lowerneck -16.9177 -1.51932 -1.48984
upperneck 17.7044 -3.1951 7.05326
head 8.45333 -0.875456 2.23283
rclavicle -4.17945e-014 2.50469e-014
rhumerus -0.56648 21.435 -99.5269
rradius 91.3982
rwrist 28.7382
rhand -40.5772 -18.9522
rfingers 7.12502
rthumb -13.5241 -48.493
lclavicle -4.17945e-014 2.50469e-014
lhumerus -62.8356 -13.3412 88.5942
lradius 14.5213
lwrist -17.2346
lhand -35.3921 8.9147
lfingers 7.12502
lthumb -8.52323 38.7227
rfemur 34.1002 3.9585 21.0479
rtibia 8.26944e-014
rfoot -18.1982 -3.09319
rtoes -20.6625
lfemur -26.1532 12.2981 -4.36766
ltibia 37.5124
lfoot -30.284 -5.76437
ltoes -12.1301
14
root 0.593358 16.246 -25.1874 -5.12237 -16.1719 -5.64068
lowerback 12.6824 4.74165 5.40551
upperback 2.75288 6.97632 0.176835
thorax -3.54702 3.40989 -3.87839
lowerneck -16.8575 -1.73517 -1.8574
upperneck 17.7889 -3.36272 6.86888
head 8.47971 -0.998099 2.2118
rclavicle -5.07895e-014 2.38542e-015
rhumerus 0.0650229 21.4105 -98.293
rradius 92.5641
rwrist 28.9939
rhand -40.6741 -18.8995
rfingers 7.12502
rthumb -13.6176 -48.4341
lclavicle -5.07895e-014 2.38542e-015
lhumerus -63.0284 -12.4551 87.7253
lradius 14.3244
lwrist -17.6587
lhand -34.735 8.84251
lfingers 7.12502
lthumb -7.88902 38.6753
rfemur 34.6972 3.83179 20.8377
rtibia 6.36111e-015
rfoot -17.5393 -2.88731
rtoes -21.4942
lfemur -25.8677 12.8644 -4.81241
ltibia 38.0697
lfoot -30.0422 -6.03139
ltoes -12.0156
15
root 0.63166 16.2304 -25.0012 -5.05371 -15.8102 -5.77454
lowerback 12.3774 4.6483 5.97917
upperback 2.79507 6.89207 -0.173061
thorax -3.23084 3.37969 -4.50966
lowerneck -16.9932 -1.86262 -1.75833
upperneck 17.6521 -3.65418 7.32866
head 8.48223 -1.08088 2.31339
rclavicle 1.67476e-014 5.96354e-015
rhumerus 0.968804 21.4062 -97.9945
rradius 93.4934
rwrist 29.2136
rhand -40.8548 -19.3667
rfingers 7.12502
rthumb -13.7917 -48.8896
lclavicle 1.67476e-014 5.96354e-015
lhumerus -63.0862 -12.4343 86.7907
lradius 14.4191
lwrist -17.1733
lhand -35.2923 8.42325
lfingers 7.12502
lthumb -8.4269 38.2351
rfemur 35.2313 3.65905 20.6043
rtibia 4.77083e-014
rfoot -16.7261 -2.45853
rtoes -22.004
lfemur -25.503 13.0486 -5.16056
ltibia 38.6049
lfoot -29.7268 -6.52288
ltoes -12.2978
